<mxfile host="65bd71144e">
    <diagram name="Page-1" id="PSOaqjlRbO1-yD1LVDZj">
        <mxGraphModel dx="422" dy="392" grid="1" gridSize="10" guides="1" tooltips="1" connect="1" arrows="1" fold="1" page="1" pageScale="1" pageWidth="850" pageHeight="1100" math="0" shadow="0">
            <root>
                <mxCell id="0"/>
                <mxCell id="1" parent="0"/>
                <mxCell id="QjwyO5V8kE81W8l4v7uM-26" value="chain" style="rounded=0;whiteSpace=wrap;html=1;align=right;verticalAlign=top;fontStyle=2;dashed=1;fillColor=none;strokeColor=#2a8ae5;" parent="1" vertex="1">
                    <mxGeometry x="50" y="20" width="520" height="310" as="geometry"/>
                </mxCell>
                <mxCell id="QjwyO5V8kE81W8l4v7uM-5" value="" style="rounded=0;whiteSpace=wrap;html=1;fillColor=#60a917;fontColor=#ffffff;strokeColor=#2D7600;" parent="1" vertex="1">
                    <mxGeometry x="320" y="40" width="145" height="150" as="geometry"/>
                </mxCell>
                <mxCell id="QjwyO5V8kE81W8l4v7uM-1" value="" style="rounded=0;whiteSpace=wrap;html=1;dashed=1;fillColor=none;" parent="1" vertex="1">
                    <mxGeometry x="335" y="80" width="90" height="60" as="geometry"/>
                </mxCell>
                <mxCell id="QjwyO5V8kE81W8l4v7uM-2" value="" style="ellipse;whiteSpace=wrap;html=1;aspect=fixed;fillColor=none;dashed=1;" parent="1" vertex="1">
                    <mxGeometry x="375" y="100" width="80" height="80" as="geometry"/>
                </mxCell>
                <mxCell id="QjwyO5V8kE81W8l4v7uM-3" value="" style="rhombus;whiteSpace=wrap;html=1;fillColor=none;dashed=1;" parent="1" vertex="1">
                    <mxGeometry x="365" y="50" width="80" height="80" as="geometry"/>
                </mxCell>
                <mxCell id="QjwyO5V8kE81W8l4v7uM-6" value="A" style="rounded=0;whiteSpace=wrap;html=1;dashed=1;fillColor=#6d8764;fontColor=#ffffff;strokeColor=#3A5431;" parent="1" vertex="1">
                    <mxGeometry x="230" y="240" width="90" height="60" as="geometry"/>
                </mxCell>
                <mxCell id="QjwyO5V8kE81W8l4v7uM-7" value="B" style="rhombus;whiteSpace=wrap;html=1;fillColor=#6d8764;dashed=1;fontColor=#ffffff;strokeColor=#3A5431;" parent="1" vertex="1">
                    <mxGeometry x="355" y="230" width="80" height="80" as="geometry"/>
                </mxCell>
                <mxCell id="QjwyO5V8kE81W8l4v7uM-8" value="C" style="ellipse;whiteSpace=wrap;html=1;aspect=fixed;fillColor=#6d8764;dashed=1;fontColor=#ffffff;strokeColor=#3A5431;" parent="1" vertex="1">
                    <mxGeometry x="475" y="230" width="80" height="80" as="geometry"/>
                </mxCell>
                <mxCell id="QjwyO5V8kE81W8l4v7uM-9" value="snapshot" style="text;html=1;align=center;verticalAlign=middle;whiteSpace=wrap;rounded=0;fontSize=14;" parent="1" vertex="1">
                    <mxGeometry x="70" y="100" width="60" height="30" as="geometry"/>
                </mxCell>
                <mxCell id="QjwyO5V8kE81W8l4v7uM-10" value="versions" style="text;html=1;align=center;verticalAlign=middle;whiteSpace=wrap;rounded=0;fontSize=14;" parent="1" vertex="1">
                    <mxGeometry x="70" y="255" width="60" height="30" as="geometry"/>
                </mxCell>
                <mxCell id="QjwyO5V8kE81W8l4v7uM-11" value="text" style="text;html=1;align=center;verticalAlign=middle;whiteSpace=wrap;rounded=0;fontSize=14;" parent="1" vertex="1">
                    <mxGeometry x="70" y="415" width="60" height="30" as="geometry"/>
                </mxCell>
                <mxCell id="QjwyO5V8kE81W8l4v7uM-12" value="critical text" style="rounded=1;whiteSpace=wrap;html=1;fillColor=#647687;fontColor=#ffffff;strokeColor=#314354;" parent="1" vertex="1">
                    <mxGeometry x="332.5" y="400" width="120" height="60" as="geometry"/>
                </mxCell>
                <mxCell id="QjwyO5V8kE81W8l4v7uM-13" value="witnesses" style="text;html=1;align=center;verticalAlign=middle;whiteSpace=wrap;rounded=0;fontSize=14;" parent="1" vertex="1">
                    <mxGeometry x="425" y="330" width="60" height="30" as="geometry"/>
                </mxCell>
                <mxCell id="QjwyO5V8kE81W8l4v7uM-15" value="" style="endArrow=none;html=1;rounded=0;entryX=0.5;entryY=1;entryDx=0;entryDy=0;exitX=0.5;exitY=0;exitDx=0;exitDy=0;fillColor=#f0a30a;strokeColor=#BD7000;" parent="1" source="QjwyO5V8kE81W8l4v7uM-12" target="QjwyO5V8kE81W8l4v7uM-6" edge="1">
                    <mxGeometry width="50" height="50" relative="1" as="geometry">
                        <mxPoint x="220" y="400" as="sourcePoint"/>
                        <mxPoint x="270" y="350" as="targetPoint"/>
                    </mxGeometry>
                </mxCell>
                <mxCell id="QjwyO5V8kE81W8l4v7uM-16" value="" style="endArrow=none;html=1;rounded=0;entryX=0.5;entryY=1;entryDx=0;entryDy=0;fillColor=#f0a30a;strokeColor=#BD7000;" parent="1" source="QjwyO5V8kE81W8l4v7uM-12" target="QjwyO5V8kE81W8l4v7uM-7" edge="1">
                    <mxGeometry width="50" height="50" relative="1" as="geometry">
                        <mxPoint x="403" y="410" as="sourcePoint"/>
                        <mxPoint x="285" y="310" as="targetPoint"/>
                    </mxGeometry>
                </mxCell>
                <mxCell id="QjwyO5V8kE81W8l4v7uM-18" value="" style="endArrow=none;html=1;rounded=0;entryX=0.5;entryY=1;entryDx=0;entryDy=0;exitX=0.5;exitY=0;exitDx=0;exitDy=0;fillColor=#f0a30a;strokeColor=#BD7000;" parent="1" source="QjwyO5V8kE81W8l4v7uM-12" target="QjwyO5V8kE81W8l4v7uM-8" edge="1">
                    <mxGeometry width="50" height="50" relative="1" as="geometry">
                        <mxPoint x="413" y="420" as="sourcePoint"/>
                        <mxPoint x="295" y="320" as="targetPoint"/>
                    </mxGeometry>
                </mxCell>
                <mxCell id="QjwyO5V8kE81W8l4v7uM-19" value="" style="endArrow=none;html=1;rounded=0;entryX=0;entryY=1;entryDx=0;entryDy=0;exitX=0.5;exitY=0;exitDx=0;exitDy=0;fillColor=#f0a30a;strokeColor=#BD7000;" parent="1" source="QjwyO5V8kE81W8l4v7uM-6" target="QjwyO5V8kE81W8l4v7uM-1" edge="1">
                    <mxGeometry width="50" height="50" relative="1" as="geometry">
                        <mxPoint x="423" y="430" as="sourcePoint"/>
                        <mxPoint x="305" y="330" as="targetPoint"/>
                    </mxGeometry>
                </mxCell>
                <mxCell id="QjwyO5V8kE81W8l4v7uM-20" value="" style="endArrow=none;html=1;rounded=0;entryX=0.5;entryY=1;entryDx=0;entryDy=0;exitX=0.5;exitY=0;exitDx=0;exitDy=0;fillColor=#f0a30a;strokeColor=#BD7000;" parent="1" source="QjwyO5V8kE81W8l4v7uM-7" target="QjwyO5V8kE81W8l4v7uM-3" edge="1">
                    <mxGeometry width="50" height="50" relative="1" as="geometry">
                        <mxPoint x="433" y="440" as="sourcePoint"/>
                        <mxPoint x="315" y="340" as="targetPoint"/>
                    </mxGeometry>
                </mxCell>
                <mxCell id="QjwyO5V8kE81W8l4v7uM-21" value="" style="endArrow=none;html=1;rounded=0;entryX=1;entryY=1;entryDx=0;entryDy=0;exitX=0;exitY=0;exitDx=0;exitDy=0;fillColor=#f0a30a;strokeColor=#BD7000;" parent="1" source="QjwyO5V8kE81W8l4v7uM-8" target="QjwyO5V8kE81W8l4v7uM-2" edge="1">
                    <mxGeometry width="50" height="50" relative="1" as="geometry">
                        <mxPoint x="443" y="450" as="sourcePoint"/>
                        <mxPoint x="325" y="350" as="targetPoint"/>
                    </mxGeometry>
                </mxCell>
                <mxCell id="QjwyO5V8kE81W8l4v7uM-22" value="D" style="shape=parallelogram;perimeter=parallelogramPerimeter;whiteSpace=wrap;html=1;fixedSize=1;fillColor=#6d8764;fontColor=#ffffff;strokeColor=#3A5431;" parent="1" vertex="1">
                    <mxGeometry x="610" y="240" width="95" height="60" as="geometry"/>
                </mxCell>
                <mxCell id="QjwyO5V8kE81W8l4v7uM-23" value="" style="endArrow=none;html=1;rounded=0;entryX=0.5;entryY=1;entryDx=0;entryDy=0;exitX=0.5;exitY=0;exitDx=0;exitDy=0;fillColor=#f0a30a;strokeColor=#BD7000;" parent="1" source="QjwyO5V8kE81W8l4v7uM-12" target="QjwyO5V8kE81W8l4v7uM-22" edge="1">
                    <mxGeometry width="50" height="50" relative="1" as="geometry">
                        <mxPoint x="403" y="410" as="sourcePoint"/>
                        <mxPoint x="525" y="320" as="targetPoint"/>
                    </mxGeometry>
                </mxCell>
                <mxCell id="QjwyO5V8kE81W8l4v7uM-24" value="..." style="ellipse;shape=cloud;whiteSpace=wrap;html=1;fillColor=none;" parent="1" vertex="1">
                    <mxGeometry x="610" y="80" width="120" height="80" as="geometry"/>
                </mxCell>
                <mxCell id="QjwyO5V8kE81W8l4v7uM-25" value="" style="endArrow=none;html=1;rounded=0;entryX=0.55;entryY=0.95;entryDx=0;entryDy=0;exitX=0.5;exitY=0;exitDx=0;exitDy=0;fillColor=#f0a30a;strokeColor=#BD7000;entryPerimeter=0;dashed=1;" parent="1" source="QjwyO5V8kE81W8l4v7uM-22" target="QjwyO5V8kE81W8l4v7uM-24" edge="1">
                    <mxGeometry width="50" height="50" relative="1" as="geometry">
                        <mxPoint x="565" y="252" as="sourcePoint"/>
                        <mxPoint x="521" y="178" as="targetPoint"/>
                    </mxGeometry>
                </mxCell>
            </root>
        </mxGraphModel>
    </diagram>
</mxfile>